<?xml version="1.0" encoding="UTF-8" standalone="no"?>
<!DOCTYPE svg  PUBLIC '-//W3C//DTD SVG 1.1//EN'  'http://www.w3.org/Graphics/SVG/1.1/DTD/svg11.dtd'>
<svg version="1.1" xmlns="http://www.w3.org/2000/svg">
<defs>
<font id="FolioBT-BoldCondensed" horiz-adv-x="435">
<font-face cap-height="713" underline-position="-168" units-per-em="1000" bbox="-45 -236 952 963" descent="-200" underline-thickness="78" font-family="Folio Condensed" ascent="800" panose-1="0 0 0 0 0 0 0 0 0 0" font-weight="700" unicode-range="U+0020-00FE" font-stretch="condensed" x-height="516"/>
<missing-glyph/>
<glyph unicode=" " glyph-name="space" horiz-adv-x="218"/>
<glyph unicode="!" glyph-name="exclam" horiz-adv-x="269" d="M69 130h130v-130h-130v130zM186 216h-104l-23 497h150z"/>
<glyph unicode='&quot;' glyph-name="quotedbl" horiz-adv-x="314" d="M42 701h80v-272h-80v272zM193 701h80v-272h-80v272z"/>
<glyph unicode="#" glyph-name="numbersign" horiz-adv-x="769" d="M359 713h93l-75 -213h122l76 213h93l-75 -213h142l-29 -84h-143l-44 -123h151l-30 -84h-150l-76 -212h-93l76 212h-123l-77 -212h-93l76 212h-146l30 84h145l44 123h-154l30 84h154zM346 416l-44 -124h125l44 124h-125z"/>
<glyph unicode="$" glyph-name="dollar" d="M26 209h128q-1 -8 -1 -23q0 -37 10.5 -54.5t35.5 -21.5v176q-92 47 -134 98.5t-42 122.5q0 89 42 130t134 42v50h44v-50h9q75 0 116.5 -36t41.5 -100v-72h-123q0 4 0.5 12t0.5 11q0 36 -9.5 53t-35.5 23v-163q97 -60 138.5 -112t41.5 -123q0 -89 -43 -130t-137 -42v-61 h-44v61q-84 2 -128.5 35t-44.5 90v84zM243 110q47 9 47 67q0 40 -47 78v-145zM199 437v133q-45 -8 -45 -61q0 -43 45 -72z"/>
<glyph unicode="%" glyph-name="percent" horiz-adv-x="766" d="M192 -14l313 706h70l-312 -706h-71zM143 372q0 -20 7 -28.5t25 -8.5q17 0 24 8.5t7 28.5v210q0 20 -7 28.5t-24 8.5q-32 0 -32 -37v-210zM39 554q0 77 30 107.5t106 30.5t105.5 -30t29.5 -107v-155q0 -77 -29.5 -107.5t-105.5 -30.5t-106 30.5t-30 107.5v154zM560 96 q0 -20 7 -28.5t25 -8.5q17 0 24 8.5t7 28.5v210q0 20 -7 28.5t-24 8.5q-32 0 -32 -37v-210zM456 278q0 77 30 107.5t106 30.5t105.5 -30t29.5 -107v-155q0 -77 -29.5 -107.5t-105.5 -30.5t-106 30.5t-30 107.5v154z"/>
<glyph unicode="&amp;" glyph-name="ampersand" horiz-adv-x="532" d="M520 0h-49q-37 0 -62.5 16t-55.5 56q-59 -85 -164 -85q-80 0 -125.5 48t-45.5 131q0 60 24 104t77 82q-52 59 -52 158q0 87 39 129.5t121 42.5q154 0 154 -155q0 -65 -20 -107t-73 -79l56 -64q22 30 40 70h147q-59 -102 -105 -169l49 -50h45v-128zM272 168l-79 92 q-46 -42 -46 -88q0 -26 15 -43t37 -17q33 0 73 56zM215 428q30 22 41 42.5t11 52.5q0 46 -41 46q-23 0 -33 -14t-10 -46q0 -48 32 -81z"/>
<glyph unicode="&apos;" glyph-name="quotesingle" horiz-adv-x="163" d="M42 701h80v-272h-80v272z"/>
<glyph unicode="(" glyph-name="parenleft" horiz-adv-x="296" d="M271 727v-110h-55q-25 0 -31.5 -11.5t-6.5 -47.5v-482q0 -37 6.5 -48t31.5 -11h55v-110h-104q-56 0 -80.5 30.5t-24.5 98.5v562q0 68 24.5 98.5t80.5 30.5h104z"/>
<glyph unicode=")" glyph-name="parenright" horiz-adv-x="296" d="M25 727h104q56 0 80.5 -30.5t24.5 -98.5v-562q0 -68 -24.5 -98.5t-80.5 -30.5h-104v110h55q25 0 31.5 11t6.5 48v482q0 36 -6.5 47.5t-31.5 11.5h-55v110z"/>
<glyph unicode="*" glyph-name="asterisk" horiz-adv-x="417" d="M209 459l-69 -105l-75 55l77 98l-121 34l28 89l118 -43l-4 126h93l-5 -126l118 43l29 -89l-121 -34l77 -98l-75 -55z"/>
<glyph unicode="+" glyph-name="plus" horiz-adv-x="833" d="M375 596h83v-257h251v-81h-251v-258h-83v258h-251v81h251v257z"/>
<glyph unicode="," glyph-name="comma" horiz-adv-x="218" d="M174 -14l-68 -125h-72l62 139h-52v130h130v-144z"/>
<glyph unicode="-" glyph-name="hyphen" horiz-adv-x="312" d="M42 209v116h229v-116h-229z"/>
<glyph unicode="." glyph-name="period" horiz-adv-x="218" d="M44 0v130h130v-130h-130z"/>
<glyph unicode="/" glyph-name="slash" horiz-adv-x="410" d="M-14 -93l363 820h75l-364 -820h-74z"/>
<glyph unicode="0" glyph-name="zero" d="M396 164q0 -99 -39 -138.5t-139 -39.5q-101 0 -140 39.5t-39 138.5v351q0 99 39 138t140 39t139.5 -39t38.5 -138v-351zM176 166q0 -33 8.5 -46.5t31.5 -13.5q24 0 33.5 13.5t9.5 46.5v346q0 33 -9 46.5t-32 13.5q-24 0 -33 -14t-9 -46v-346z"/>
<glyph unicode="1" glyph-name="one" d="M159 0v548h-99v86l82 44h156v-678h-139z"/>
<glyph unicode="2" glyph-name="two" d="M41 0v110q0 23 6 39q5 15 15.5 33.5t18.5 30.5t27 39.5t27 39.5q11 16 28.5 41t26 38t21 32t19 31t13 26t9 25.5t2.5 22.5q0 60 -41 60q-24 0 -32.5 -18.5t-8.5 -65.5v-13h-131v56q0 85 43.5 125t137.5 40q85 0 125.5 -44t40.5 -134q0 -88 -53 -167l-154 -227h208v-120 h-348z"/>
<glyph unicode="3" glyph-name="three" d="M23 204h143v-63q0 -35 37 -35q38 0 38 33v114q0 26 -11 34.5t-40 8.5h-51v123h49q28 0 40.5 9.5t12.5 31.5v80q0 33 -38 33q-17 0 -27 -10t-10 -25v-61h-135v70q0 147 168 147q88 0 133.5 -39.5t45.5 -115.5v-62q0 -54 -22 -80.5t-78 -36.5q103 -3 103 -119v-98 q0 -84 -41 -120.5t-136 -36.5q-181 0 -181 141v77z"/>
<glyph unicode="4" glyph-name="four" d="M231 284l8 273l-103 -273h95zM231 0v168h-215v130l154 380h196v-390h49v-120h-49v-168h-135z"/>
<glyph unicode="5" glyph-name="five" d="M37 205h133v-36q0 -33 8.5 -47.5t31.5 -14.5t32 14.5t9 47.5v137q0 33 -9 47.5t-32 14.5q-40 0 -41 -59h-114v369h310v-119h-181v-114q30 37 82 37q59 0 90 -33t31 -96v-228q0 -72 -43.5 -105.5t-133.5 -33.5q-92 0 -132.5 36t-40.5 117v66z"/>
<glyph unicode="6" glyph-name="six" d="M264 529q0 42 -44 42q-27 0 -36 -12.5t-9 -41.5v-142q30 41 95 41q125 0 125 -159v-121q0 -80 -42.5 -115t-136.5 -35q-92 0 -134 40.5t-42 129.5v376q0 88 42 124t139 36t135.5 -35.5t38.5 -124.5v-61h-131v58zM175 149q0 -19 11.5 -30.5t29.5 -11.5q39 0 39 42v118 q0 42 -40 42q-18 0 -29 -11t-11 -31v-118z"/>
<glyph unicode="7" glyph-name="seven" d="M389 678v-109l-162 -569h-137l163 553h-214v125h350z"/>
<glyph unicode="8" glyph-name="eight" d="M254 463v68q0 19 -9.5 30.5t-26.5 11.5q-37 0 -37 -42v-68q0 -42 37 -42q36 0 36 42zM254 263q0 19 -9.5 30.5t-26.5 11.5q-37 0 -37 -42v-118q0 -42 37 -42q36 0 36 42v118zM42 247q0 59 22 86.5t74 30.5q-89 12 -89 106v86q0 70 41 103t128 33q90 0 129.5 -33.5 t39.5 -110.5v-67q0 -105 -91 -117q52 -3 74.5 -30.5t22.5 -86.5v-122q0 -80 -40.5 -110.5t-134.5 -30.5t-135 30.5t-41 110.5v122z"/>
<glyph unicode="9" glyph-name="nine" d="M171 150q0 -43 45 -43q26 0 35 12.5t9 42.5v141q-30 -41 -95 -41q-125 0 -125 159v121q0 80 42.5 115t136.5 35q92 0 134.5 -40.5t42.5 -129.5v-376q0 -88 -42.5 -124t-139.5 -36t-135.5 35.5t-38.5 124.5v61h131v-57zM260 529q0 19 -11.5 30.5t-29.5 11.5q-39 0 -39 -42 v-118q0 -42 40 -42q18 0 29 11t11 31v118z"/>
<glyph unicode=":" glyph-name="colon" horiz-adv-x="218" d="M44 353v129h130v-129h-130zM44 0v130h130v-130h-130z"/>
<glyph unicode=";" glyph-name="semicolon" horiz-adv-x="218" d="M44 353v129h130v-129h-130zM174 -14l-68 -125h-72l62 139h-52v130h130v-144z"/>
<glyph unicode="&lt;" glyph-name="less" horiz-adv-x="833" d="M704 574v-90l-456 -186l456 -186v-89l-575 236v78z"/>
<glyph unicode="=" glyph-name="equal" horiz-adv-x="833" d="M124 440h585v-82h-585v82zM124 238h585v-81h-585v81z"/>
<glyph unicode="&gt;" glyph-name="greater" horiz-adv-x="833" d="M129 574l575 -237v-78l-575 -236v89l456 186l-456 186v90z"/>
<glyph unicode="?" glyph-name="question" horiz-adv-x="384" d="M244 130v-130h-129v130h129zM28 500v64q0 84 38.5 123.5t122.5 39.5q89 0 130.5 -43.5t41.5 -137.5q0 -52 -11.5 -85t-37.5 -68q-7 -9 -23 -28t-23.5 -29.5t-14.5 -27.5t-7 -35v-59h-134v83q0 33 12.5 60t40.5 64q7 10 21.5 28.5t20.5 27t11.5 21t5.5 23.5v50 q0 36 -33 36q-18 0 -25.5 -9t-7.5 -30v-68h-128z"/>
<glyph unicode="@" glyph-name="at" horiz-adv-x="1000" d="M602 345q-14 86 -90 86q-62 0 -106 -62.5t-44 -151.5q0 -48 22 -74t63 -26q43 0 79 32.5t49 84.5zM573 138q-52 -82 -148 -82q-74 0 -113.5 42t-39.5 122q0 115 68 193.5t162 78.5q84 0 121 -69l27 52h75l-72 -286q-4 -20 -4 -24q0 -19 13 -30t34 -11q53 0 104 56 q72 77 72 192q0 123 -90.5 200.5t-239.5 77.5q-135 0 -230 -61q-89 -56 -136.5 -142.5t-47.5 -192.5q0 -152 102.5 -243.5t272.5 -91.5q167 0 300 93l33 -48q-147 -111 -329 -111q-189 0 -309 93q-150 114 -150 309q0 163 100 286q146 178 397 178q170 0 278 -84 q129 -99 129 -262q0 -164 -122 -263q-69 -55 -155 -55q-102 0 -102 81v2z"/>
<glyph unicode="A" glyph-name="A" d="M178 255h78l-38 336zM0 0l122 713h191l122 -713h-147l-16 125h-109l-16 -125h-147z"/>
<glyph unicode="B" glyph-name="B" horiz-adv-x="458" d="M49 0v713h192q80 0 123.5 -35t43.5 -95v-104q0 -46 -25.5 -74t-72.5 -31q51 -4 79.5 -34t28.5 -80v-119q0 -75 -42.5 -108t-134.5 -33h-192zM185 309v-189q11 -2 31 -2q65 0 65 53v92q0 48 -66 48q-19 0 -30 -2zM185 429q8 -1 24 -1q65 0 65 45v72q0 48 -64 48 q-16 0 -25 -1v-163z"/>
<glyph unicode="C" glyph-name="C" horiz-adv-x="444" d="M410 172q0 -105 -40.5 -145.5t-144.5 -40.5q-105 0 -145 40.5t-40 145.5v369q0 105 40 145.5t145 40.5q104 0 144.5 -40.5t40.5 -145.5v-80h-141v77q0 34 -10.5 49t-34.5 15q-23 0 -33 -15t-10 -47v-367q0 -35 9.5 -48.5t33.5 -13.5q25 0 35 15.5t10 52.5v84h141v-91z "/>
<glyph unicode="D" glyph-name="D" horiz-adv-x="456" d="M220 713q106 0 151.5 -30.5t45.5 -109.5v-430q0 -81 -45 -112t-152 -31h-171v713h171zM188 585v-456q9 0 18.5 -0.5t14 -1t6.5 -0.5q26 0 37 11.5t11 38.5v361q0 28 -12 38t-43 10q-20 0 -32 -1z"/>
<glyph unicode="E" glyph-name="E" horiz-adv-x="396" d="M348 713v-130h-160v-146h154v-130h-154v-177h160v-130h-299v713h299z"/>
<glyph unicode="F" glyph-name="F" horiz-adv-x="391" d="M353 713v-130h-160v-146h154v-130h-154v-307h-140v713h300z"/>
<glyph unicode="G" glyph-name="G" horiz-adv-x="454" d="M410 0h-93q-15 22 -24 56q-24 -70 -117 -70q-71 0 -104 37t-33 113v423q0 92 41.5 130t143.5 38q99 0 142.5 -36t43.5 -123v-55h-141q1 10 1 27q0 33 -10.5 47.5t-34.5 14.5q-27 0 -35.5 -15.5t-8.5 -54.5v-320q0 -31 1 -44t4.5 -28.5t13 -21t25.5 -5.5q44 0 44 54v138 h-44v127h185v-432z"/>
<glyph unicode="H" glyph-name="H" horiz-adv-x="472" d="M49 0v713h138v-286h98v286h139v-713h-139v297h-98v-297h-138z"/>
<glyph unicode="I" glyph-name="I" horiz-adv-x="250" d="M197 713v-713h-144v713h144z"/>
<glyph unicode="J" glyph-name="J" horiz-adv-x="424" d="M12 223h136v-54q0 -58 41 -58q28 0 34.5 17.5t6.5 67.5v517h141v-563q0 -89 -42 -126.5t-140 -37.5q-91 0 -134 39t-43 120v78z"/>
<glyph unicode="K" glyph-name="K" horiz-adv-x="458" d="M49 0v713h139v-339l112 339h147l-129 -345l141 -368h-153l-118 352v-352h-139z"/>
<glyph unicode="L" glyph-name="L" horiz-adv-x="373" d="M197 713v-583h153v-130h-297v713h144z"/>
<glyph unicode="M" glyph-name="M" horiz-adv-x="681" d="M410 0h-139l-97 606l5 -606h-130v713h222l21 -160q38 -285 49 -390q17 163 48 390l21 160h222v-713h-130l5 606z"/>
<glyph unicode="N" glyph-name="N" horiz-adv-x="560" d="M316 0q-80 295 -143 578l4 -578h-128v713h192q87 -325 143 -578l-4 578h130v-713h-194z"/>
<glyph unicode="O" glyph-name="O" horiz-adv-x="449" d="M409 172q0 -105 -39.5 -145.5t-144.5 -40.5t-145 40.5t-40 145.5v369q0 105 40 145.5t145 40.5t144.5 -40.5t39.5 -145.5v-369zM180 538v-363q0 -64 43 -64q29 0 38 15.5t9 54.5v356q0 36 -9 50.5t-36 14.5q-25 0 -35 -15.5t-10 -48.5z"/>
<glyph unicode="P" glyph-name="P" horiz-adv-x="440" d="M188 587v-210q7 -1 19 -1q32 0 45.5 13.5t13.5 44.5v100q0 28 -14 41t-45 13q-12 0 -19 -1zM49 0v713h168q101 0 145.5 -33t44.5 -114v-168q0 -75 -38 -111t-120 -36h-61v-251h-139z"/>
<glyph unicode="Q" glyph-name="Q" horiz-adv-x="449" d="M181 538v-363q0 -35 10 -49.5t34 -14.5q26 0 34.5 15.5t8.5 54.5v356q0 35 -9 50t-34 15t-34.5 -15t-9.5 -49zM363 -184q-24 -1 -66 -1q-73 0 -101 14q-18 9 -23.5 35t-5.5 79q0 31 1 48q-68 3 -98 46.5t-30 134.5v369q0 105 40 145.5t145 40.5t144.5 -40.5t39.5 -145.5 v-369q0 -92 -31 -135.5t-100 -45.5q-2 -18 -2 -25q0 -24 11 -33t40 -9q8 0 36 2v-110z"/>
<glyph unicode="R" glyph-name="R" horiz-adv-x="458" d="M279 33v220q0 56 -65 56q-9 0 -29 -2v-307h-136v713h192q80 0 123.5 -35t43.5 -95v-104q0 -46 -25.5 -74t-72.5 -31q56 -5 82 -36t26 -92v-213q4 -18 19 -33h-139q-19 10 -19 33zM185 429q8 -1 23 -1q61 0 61 49v64q0 48 -62 48q-14 0 -22 -1v-159z"/>
<glyph unicode="S" glyph-name="S" d="M34 221h138q0 -5 -0.5 -14t-0.5 -13q0 -42 9.5 -60t35.5 -18q25 0 35 13t10 44q0 41 -11.5 63t-48.5 53q-92 78 -115 105q-35 39 -44 63q-10 26 -10 90q0 96 45 138t149 42q91 0 132 -44.5t41 -142.5q0 -11 -2 -41h-139v23q0 42 -8 58.5t-32 16.5t-34 -13t-10 -44 q0 -14 3 -26t5 -19t11.5 -17.5t12 -13.5t18 -15.5t18.5 -15.5q97 -82 115 -107q32 -42 43 -83q3 -12 3 -71q0 -102 -39 -144t-143 -42q-101 0 -145 43t-44 139q0 9 2 53z"/>
<glyph unicode="T" glyph-name="T" horiz-adv-x="373" d="M116 0v581h-105v132h350v-132h-104v-581h-141z"/>
<glyph unicode="U" glyph-name="U" horiz-adv-x="458" d="M49 713h139v-517q0 -50 6.5 -68t34.5 -18t34.5 17.5t6.5 67.5v518h139v-563q0 -90 -40 -127t-140 -37t-140 37t-40 127v563z"/>
<glyph unicode="V" glyph-name="V" d="M0 713h147l71 -591l70 591h147l-122 -713h-191z"/>
<glyph unicode="W" glyph-name="W" horiz-adv-x="718" d="M438 713l70 -605l55 605h143l-97 -713h-180q-37 239 -70 601q-29 -326 -71 -601h-180l-96 713h142l55 -605l70 605h159z"/>
<glyph unicode="X" glyph-name="X" horiz-adv-x="470" d="M0 0l156 370l-142 343h150l71 -226l71 226h150l-142 -343l156 -370h-152l-83 248l-83 -248h-152z"/>
<glyph unicode="Y" glyph-name="Y" horiz-adv-x="442" d="M153 0v269l-153 444h152l70 -301l69 301h152l-153 -444v-269h-137z"/>
<glyph unicode="Z" glyph-name="Z" horiz-adv-x="412" d="M32 0v138l186 448h-179v127h325v-120l-190 -466h206v-127h-348z"/>
<glyph unicode="[" glyph-name="bracketleft" horiz-adv-x="296" d="M178 16h91v-109h-207v820h207v-109h-91v-602z"/>
<glyph unicode="\" glyph-name="backslash" horiz-adv-x="410" d="M424 -93h-74l-364 820h75z"/>
<glyph unicode="]" glyph-name="bracketright" horiz-adv-x="296" d="M118 16v602h-91v109h207v-820h-207v109h91z"/>
<glyph unicode="^" glyph-name="asciicircum" horiz-adv-x="1000" d="M447 713h106l242 -274h-101l-194 194l-195 -194h-101z"/>
<glyph unicode="_" glyph-name="underscore" horiz-adv-x="500" d="M0 -152h500v-84h-500v84z"/>
<glyph unicode="`" glyph-name="grave" horiz-adv-x="500" d="M107 765h126l96 -181h-69z"/>
<glyph unicode="a" glyph-name="a" horiz-adv-x="433" d="M169 176v-45q0 -42 38 -42q34 0 43 36v132q-13 -9 -32 -20t-27.5 -16t-15 -16.5t-6.5 -28.5zM264 -1q-7 23 -11 48q-37 -60 -103 -60q-61 0 -88 38.5t-27 121.5q0 65 19 102t62 52q16 6 39.5 13.5t35 11.5t25.5 10t20.5 12t11 15t4.5 21q0 19 -10 30t-28 11 q-38 0 -38 -58q0 -2 0.5 -7.5t0.5 -8.5h-123v18q0 83 40 122t125 39t124.5 -37t39.5 -116v-245q0 -102 13 -133h-132z"/>
<glyph unicode="b" glyph-name="b" d="M181 362v-208q0 -31 7 -43.5t31 -12.5q23 0 30.5 12.5t7.5 43.5v208q0 31 -7 43.5t-31 12.5q-23 0 -30.5 -13t-7.5 -43zM174 0h-128v713h135v-261q37 78 112 78q101 0 101 -137v-270q0 -137 -102 -137q-75 0 -118 78v-64z"/>
<glyph unicode="c" glyph-name="c" horiz-adv-x="403" d="M369 206v-74q0 -75 -41 -110.5t-126 -35.5q-93 0 -130 41t-37 138v181q0 96 39 140t128 44q79 0 123 -39.5t44 -107.5v-64h-130v50q0 28 -7.5 40t-25.5 12q-20 0 -27.5 -11t-7.5 -37v-217q0 -34 6.5 -47.5t28.5 -13.5q18 0 25.5 12t7.5 40v59h130z"/>
<glyph unicode="d" glyph-name="d" d="M254 362q0 30 -7.5 43t-30.5 13q-24 0 -31 -12.5t-7 -43.5v-208q0 -31 7 -43.5t31 -12.5t31 12.5t7 43.5v208zM261 0v64q-43 -78 -118 -78q-53 0 -77.5 33.5t-24.5 103.5v270q0 137 101 137q36 0 65.5 -20.5t47.5 -57.5v261h134v-713h-128z"/>
<glyph unicode="e" glyph-name="e" horiz-adv-x="421" d="M172 318h87v60q0 47 -45 47q-42 0 -42 -47v-60zM384 181v-35q0 -83 -39 -121.5t-123 -38.5q-96 0 -140.5 33t-44.5 108v258q0 75 43.5 110.5t134.5 35.5q169 0 169 -157v-146h-212v-90q0 -25 10.5 -35.5t35.5 -10.5q41 0 41 46v43h125z"/>
<glyph unicode="f" glyph-name="f" horiz-adv-x="306" d="M69 0v400h-41v116h39q0 5 -0.5 15t-0.5 14q0 93 30.5 130.5t112.5 37.5h78v-121q-26 2 -33 2q-28 0 -37 -11.5t-9 -44.5v-4t0.5 -8t0.5 -10h78v-116h-78v-400h-140z"/>
<glyph unicode="g" glyph-name="g" d="M261 516h128v-553q0 -87 -37 -122t-128 -35q-92 0 -131 26.5t-39 92.5q0 18 1 33h121q4 -46 40 -46q23 0 31 13t8 43v110q-18 -37 -47.5 -57.5t-65.5 -20.5q-101 0 -101 137v256q0 137 102 137q74 0 118 -78v64zM254 172v190q0 31 -7 43.5t-31 12.5q-23 0 -30.5 -13 t-7.5 -43v-190q0 -31 7 -43t31 -12q23 0 30.5 12t7.5 43z"/>
<glyph unicode="h" glyph-name="h" horiz-adv-x="440" d="M46 0v713h128v-261q43 78 118 78q106 0 106 -137v-393h-134v347q0 42 -7.5 59.5t-31.5 17.5q-44 0 -44 -72v-352h-135z"/>
<glyph unicode="i" glyph-name="i" horiz-adv-x="241" d="M51 574v139h139v-139h-139zM51 0v516h139v-516h-139z"/>
<glyph unicode="j" glyph-name="j" horiz-adv-x="248" d="M58 574v139h139v-139h-139zM0 -79q40 0 49 12t9 55v528h139v-570q0 -78 -31.5 -109t-111.5 -31h-54v115z"/>
<glyph unicode="k" glyph-name="k" horiz-adv-x="405" d="M46 1v712h135v-444l74 247h138l-81 -250l93 -265h-143l-81 255v-255h-135z"/>
<glyph unicode="l" glyph-name="l" horiz-adv-x="241" d="M51 0v713h139v-713h-139z"/>
<glyph unicode="m" glyph-name="m" horiz-adv-x="653" d="M174 452q43 78 118 78q78 0 100 -78q43 78 118 78q101 0 101 -137v-393h-134v353q0 38 -6.5 53t-28.5 15q-25 0 -35 -16t-10 -53v-352h-135v353q0 39 -6.5 53.5t-31.5 14.5q-24 0 -34 -16.5t-10 -52.5v-352h-134v530h128v-78z"/>
<glyph unicode="n" glyph-name="n" horiz-adv-x="440" d="M46 0v516h128v-64q43 78 118 78q106 0 106 -137v-393h-134v347q0 42 -7.5 59.5t-31.5 17.5q-44 0 -44 -72v-352h-135z"/>
<glyph unicode="o" glyph-name="o" horiz-adv-x="421" d="M387 368v-217q0 -91 -39.5 -128t-136.5 -37q-98 0 -137 37t-39 128v217q0 88 40 125t136 37q97 0 136.5 -36.5t39.5 -125.5zM250 355q0 37 -7.5 52t-32.5 15q-24 0 -31 -15t-7 -53v-195q0 -34 8.5 -49t29.5 -15q26 0 33 15t7 55v190z"/>
<glyph unicode="p" glyph-name="p" d="M174 516v-64q43 78 118 78q102 0 102 -137v-270q0 -137 -101 -137q-75 0 -112 78v-245h-135v697h128zM181 154q0 -31 7 -43.5t31 -12.5t31 12.5t7 43.5v208q0 30 -7.5 43t-30.5 13q-24 0 -31 -12.5t-7 -43.5v-208z"/>
<glyph unicode="q" glyph-name="q" d="M252 151v216q0 49 -36 49q-23 0 -29.5 -12t-6.5 -42v-215q0 -25 8 -36t27 -11q21 0 29 12t8 39zM257 516h132v-713h-133v261q-44 -78 -114 -78q-101 0 -101 137v270q0 137 101 137q71 0 115 -78v64z"/>
<glyph unicode="r" glyph-name="r" horiz-adv-x="329" d="M51 0v516h139l-4 -96q25 74 122 110v-182q-16 3 -29 3q-47 0 -68 -25.5t-21 -79.5v-246h-139z"/>
<glyph unicode="s" glyph-name="s" horiz-adv-x="419" d="M38 176h130q-1 -9 -1 -24q0 -60 40 -60q39 0 39 45q0 36 -49 64q-15 8 -47.5 24.5t-49 27t-27.5 22.5q-36 39 -36 107q0 148 170 148q77 0 119 -39.5t42 -113.5q0 -14 -1 -22h-125q1 6 1 18q0 51 -36 51q-16 0 -26.5 -10t-10.5 -26q0 -13 5.5 -23.5t17.5 -19t24 -15 t33.5 -17.5t37.5 -20q51 -31 72.5 -63t21.5 -83q0 -79 -44 -120.5t-129 -41.5q-89 0 -130.5 38.5t-41.5 122.5q0 15 1 30z"/>
<glyph unicode="t" glyph-name="t" horiz-adv-x="317" d="M70 400h-45v116h45v134h139v-134h78v-116h-78v-225q0 -47 60 -47q2 0 8 0.5t10 0.5v-129h-103q-65 0 -89.5 20.5t-24.5 83.5v296z"/>
<glyph unicode="u" glyph-name="u" horiz-adv-x="440" d="M393 516v-516h-127v64q-44 -78 -119 -78q-105 0 -105 137v393h138v-352q0 -39 6.5 -54t30.5 -15q42 0 42 69v352h134z"/>
<glyph unicode="v" glyph-name="v" horiz-adv-x="396" d="M116 0l-116 516h144l54 -390l54 390h144l-116 -516h-164z"/>
<glyph unicode="w" glyph-name="w" horiz-adv-x="618" d="M387 516l42 -384l47 384h136l-100 -516h-163l-40 380l-39 -380h-163l-100 516h136l47 -384l42 384h155z"/>
<glyph unicode="x" glyph-name="x" horiz-adv-x="384" d="M7 0l97 271l-89 245h141l35 -189l35 189h142l-89 -245l97 -271h-140l-45 196l-44 -196h-140z"/>
<glyph unicode="y" glyph-name="y" horiz-adv-x="394" d="M60 -44h57q24 0 24 23q0 8 -1 12l-138 525h139l68 -404l50 404h133l-118 -564q-15 -72 -38.5 -100t-86.5 -28h-89v132z"/>
<glyph unicode="z" glyph-name="z" horiz-adv-x="352" d="M22 0v118l153 282h-153v116h303v-113l-154 -287h158v-116h-307z"/>
<glyph unicode="{" glyph-name="braceleft" horiz-adv-x="500" d="M427 721v-87q-4 0 -12 0.5t-11 0.5q-56 0 -73.5 -22t-17.5 -83v-118q0 -72 -20 -105.5t-79 -47.5q59 -14 79 -48t20 -105v-117q0 -62 17.5 -84t74.5 -22q3 0 10.5 0.5t11.5 0.5v-86h-31q-93 0 -133 24q-31 18 -40.5 51t-9.5 95v121q0 70 -25.5 99t-87.5 29q-4 0 -11 -0.5 t-10 -0.5v87q3 0 10 -0.5t11 -0.5q62 0 87.5 29t25.5 98v121q0 63 9.5 95.5t40.5 51.5q41 24 142 24h22z"/>
<glyph unicode="|" glyph-name="bar" horiz-adv-x="500" d="M207 764h87v-1000h-87v1000z"/>
<glyph unicode="}" glyph-name="braceright" horiz-adv-x="500" d="M74 721h22q100 0 141 -24q31 -19 40.5 -52t9.5 -95v-121q0 -69 25 -98t88 -29q3 0 10 0.5t11 0.5v-87q-3 0 -10 0.5t-11 0.5q-62 0 -87.5 -29t-25.5 -99v-121q0 -62 -9.5 -94.5t-40.5 -51.5q-40 -24 -141 -24h-22v86q4 0 11.5 -0.5t10.5 -0.5q56 0 73.5 22t17.5 84v117 q0 71 20.5 105t79.5 48q-60 14 -80 48t-20 105v118q0 61 -17.5 83t-72.5 22q-3 0 -11 -0.5t-12 -0.5v87z"/>
<glyph unicode="~" glyph-name="asciitilde" horiz-adv-x="833" d="M747 383v-90q-100 -69 -186 -69q-44 0 -93 17q-10 3 -39 13.5t-41.5 14t-35 9.5t-41 8.5t-36.5 2.5q-79 0 -188 -77v91q103 70 189 70q58 0 143 -29q7 -2 24 -8t24.5 -9t22.5 -7.5t24.5 -6.5t22.5 -3.5t25 -1.5q81 0 185 75z"/>
<glyph unicode="¡" glyph-name="exclamdown" horiz-adv-x="269" d="M69 583v130h130v-130h-130zM186 497l23 -497h-150l23 497h104z"/>
<glyph unicode="¢" glyph-name="cent" d="M206 106v330q-24 -3 -32 -14t-8 -38v-233q0 -45 37 -45h3zM206 -68v69h-13q-150 0 -150 133v274q0 69 39.5 101.5t123.5 34.5v54h44v-54q84 -3 122 -37t38 -109v-68h-123v64q0 38 -37 42v-330q17 3 27 15t10 29v71h123v-67q0 -84 -35 -118.5t-121 -34.5h-4v-69h-44z"/>
<glyph unicode="£" glyph-name="sterling" d="M31 -1v10q0 119 92 138q18 27 18 57q0 46 -39 121h-83v43h71q-40 86 -40 161q0 81 46 123t135 42q82 0 126.5 -39t44.5 -111v-68h-127v20q0 39 -10.5 55.5t-36.5 16.5q-42 0 -42 -49q0 -54 47 -151h95v-43h-79q17 -42 17 -72q0 -59 -62 -109q31 -2 64.5 -15t40.5 -13 q26 0 29 28h91v-10q0 -73 -30 -111t-86 -38q-37 0 -89.5 17t-67.5 17q-27 0 -38 -20h-87z"/>
<glyph unicode="¤" glyph-name="currency" d="M418 163q0 -100 -39.5 -138.5t-139.5 -38.5t-139 38.5t-39 138.5v91h-58l15 63h43v57h-56l14 63h42v78q0 100 39 138.5t139 38.5t139.5 -38.5t39.5 -138.5v-46h-137v42q0 32 -9.5 46.5t-33.5 14.5q-41 0 -41 -59v-76h120l-15 -63h-105v-57h89l-15 -63h-74v-89 q0 -33 9 -46t32 -13q24 0 33.5 14.5t9.5 50.5v54h137v-62z"/>
<glyph unicode="¥" glyph-name="yen" d="M153 0v255h-153v55h132l-21 64h-111v55h92l-92 249h146l71 -286l71 286h147l-94 -249h94v-55h-114l-21 -64h135v-55h-153v-255h-129z"/>
<glyph unicode="¦" glyph-name="brokenbar" horiz-adv-x="500" d="M207 699h87v-370h-87v370zM207 199h87v-370h-87v370z"/>
<glyph unicode="§" glyph-name="section" horiz-adv-x="417" d="M168 284l92 -63q21 15 21 52q0 44 -32 66l-92 62q-21 -16 -21 -48q0 -46 32 -69zM44 72h116v-20q0 -50 50 -50q48 0 48 46q0 21 -8 33t-31 28l-125 86q-41 28 -58 59.5t-17 79.5q0 96 76 112q-52 44 -52 121q0 83 41 121.5t129 38.5q77 0 119 -40t42 -114q0 -14 -1 -22 h-116v20q0 49 -50 49q-48 0 -48 -48q0 -19 8.5 -31t30.5 -27l126 -86q41 -28 58 -59.5t17 -79.5q0 -96 -77 -113q52 -40 52 -121q0 -82 -41.5 -120.5t-128.5 -38.5q-78 0 -119.5 39t-41.5 113q0 16 1 24z"/>
<glyph unicode="¨" glyph-name="dieresis" horiz-adv-x="500" d="M110 733h110v-120h-110v120zM280 733h110v-120h-110v120z"/>
<glyph unicode="©" glyph-name="copyright" horiz-adv-x="833" d="M416 718q151 0 257 -106q105 -105 105 -255q0 -153 -104 -254q-110 -108 -258 -108q-147 0 -254 107t-107 255q0 146 108 256q103 105 253 105zM417 665q-130 0 -217 -89q-91 -93 -91 -219t91 -217t217 -91q125 0 219 92q89 87 89 216t-89 218q-90 90 -219 90zM589 441 h-81q-5 36 -29.5 55.5t-63.5 19.5q-47 0 -75 -41.5t-28 -117.5q0 -75 28.5 -115t79.5 -40q39 0 63 21.5t29 60.5h81q-4 -65 -52 -105.5t-124 -40.5q-89 0 -141.5 58t-52.5 158q0 102 54 162t142 60q72 0 118.5 -37.5t51.5 -97.5z"/>
<glyph unicode="ª" glyph-name="ordfeminine" horiz-adv-x="325" d="M127 475v-31q0 -30 28 -30q25 0 33 25v93q-10 -7 -24 -14.5t-20.5 -11t-11.5 -11.5t-5 -20zM198 351q-5 15 -8 34q-28 -42 -77 -42q-46 0 -66.5 27t-20.5 85q0 87 61 108q11 4 26 8t23 6.5t18 6t15.5 7t10.5 8t7 10t2 12.5q0 28 -28 28q-29 0 -29 -40q0 -2 0.5 -5.5 t0.5 -5.5h-92v12q0 58 30 85.5t93 27.5q64 0 93.5 -26t29.5 -81v-172q0 -70 10 -93h-99z"/>
<glyph unicode="«" glyph-name="guillemotleft" d="M400 142h-99l-90 122l90 123h99l-99 -123zM223 142h-99l-90 122l90 123h99l-99 -123z"/>
<glyph unicode="¬" glyph-name="logicalnot" horiz-adv-x="833" d="M124 421h585v-245h-81v164h-504v81z"/>
<glyph unicode="®" glyph-name="registered" horiz-adv-x="833" d="M416 718q153 0 259 -108q103 -105 103 -253q0 -153 -106 -256q-109 -106 -256 -106q-149 0 -256 109q-105 107 -105 253q0 149 109 258q103 103 252 103zM417 665q-127 0 -215 -88q-93 -95 -93 -220t89 -216q92 -92 214 -92q130 0 223 90q90 87 90 213q0 131 -88 221 q-92 92 -220 92zM269 566h156q171 0 171 -110q0 -92 -90 -112l90 -183h-97l-80 169h-63v-169h-87v405zM356 511v-127h57q49 0 71.5 14.5t22.5 47.5q0 65 -98 65h-53z"/>
<glyph unicode="¯" glyph-name="macron" horiz-adv-x="500" d="M110 711h280v-76h-280v76z"/>
<glyph unicode="°" glyph-name="degree" horiz-adv-x="329" d="M165 713q59 0 101.5 -42.5t42.5 -102.5q0 -59 -42.5 -101.5t-102.5 -42.5t-101.5 41.5t-41.5 102.5t42 103t102 42zM165 659q-38 0 -64.5 -26.5t-26.5 -63.5t27 -64t64 -27q38 0 64 27t26 64t-26.5 63.5t-63.5 26.5z"/>
<glyph unicode="±" glyph-name="plusminus" horiz-adv-x="833" d="M375 589h83v-163h251v-81h-251v-163h-83v163h-251v81h251v163zM124 89h585v-82h-585v82z"/>
<glyph unicode="²" glyph-name="twosuperior" horiz-adv-x="287" d="M27 271v66q0 14 4 23q7 17 58 86q8 10 25.5 33t23 31.5t15 23t12.5 24t3 18.5q0 36 -27 36q-16 0 -21.5 -11t-5.5 -40v-7h-87v33q0 51 28.5 75t91.5 24q109 0 109 -107q0 -53 -35 -100l-102 -136h138v-72h-230z"/>
<glyph unicode="³" glyph-name="threesuperior" horiz-adv-x="287" d="M15 393h95v-37q0 -21 24 -21q25 0 25 19v69q0 15 -7.5 20.5t-26.5 5.5h-33v73h32q35 0 35 25v48q0 20 -25 20q-24 0 -24 -21v-37h-90v42q0 88 111 88q118 0 118 -93v-37q0 -33 -14.5 -48.5t-51.5 -21.5q68 -1 68 -71v-59q0 -50 -27 -72t-89 -22q-120 0 -120 84v46z"/>
<glyph unicode="´" glyph-name="acute" horiz-adv-x="500" d="M267 765h126l-153 -181h-69z"/>
<glyph unicode="µ" glyph-name="mu" horiz-adv-x="590" d="M100 528h112l-61 -310q-6 -28 -6 -51q0 -96 89 -96q61 0 95.5 44.5t53.5 141.5l53 271h110l-71 -361q-9 -47 -9 -65q0 -17 7.5 -24.5t25.5 -7.5q11 0 17 1l-16 -78q-31 -8 -73 -8q-73 0 -73 61v7q-42 -69 -124 -69q-76 0 -115 53l-48 -247h-112z"/>
<glyph unicode="¶" glyph-name="paragraph" horiz-adv-x="500" d="M473 722v-48h-57v-674h-63v674h-83v-674h-63v383q-83 3 -131.5 49.5t-48.5 119.5q0 76 51.5 123t139.5 47h255z"/>
<glyph unicode="·" glyph-name="periodcentered" horiz-adv-x="218" d="M29 332q0 32 23.5 56t56.5 24q34 0 56.5 -23t22.5 -57q0 -33 -23.5 -56.5t-55.5 -23.5t-56 24t-24 56z"/>
<glyph unicode="¸" glyph-name="cedilla" horiz-adv-x="500" d="M272 0v-44q102 0 102 -93q0 -47 -28.5 -72.5t-82.5 -25.5q-47 0 -116 21v63q70 -21 104 -21q38 0 38 36q0 34 -47 34q-13 0 -21 -1v103h51z"/>
<glyph unicode="¹" glyph-name="onesuperior" horiz-adv-x="287" d="M105 271v329h-66v51l55 27h102v-407h-91z"/>
<glyph unicode="º" glyph-name="ordmasculine" horiz-adv-x="316" d="M290 610v-152q0 -64 -29.5 -90t-102.5 -26q-74 0 -103 26t-29 90v152q0 62 30 87.5t102 25.5q73 0 102.5 -25.5t29.5 -87.5zM188 600q0 26 -6 36.5t-24 10.5q-19 0 -24 -10t-5 -37v-137q0 -45 29 -45q19 0 24.5 10.5t5.5 38.5v133z"/>
<glyph unicode="»" glyph-name="guillemotright" d="M34 142l100 122l-100 123h100l89 -123l-89 -122h-100zM212 142l99 122l-99 123h99l89 -123l-89 -122h-99z"/>
<glyph unicode="¼" glyph-name="onequarter" horiz-adv-x="715" d="M100 298v307h-62v48l51 25h99v-380h-88zM107 -14l431 706h69l-429 -706h-71zM587 159l5 153l-65 -153h60zM587 0v94h-136v73l97 213h124v-219h30v-67h-30v-94h-85z"/>
<glyph unicode="½" glyph-name="onehalf" horiz-adv-x="715" d="M100 298v307h-62v48l51 25h99v-380h-88zM107 -14l431 706h69l-429 -706h-71zM467 0v62q0 14 4 21q7 17 55 81q7 9 18 23l16.5 21t13.5 17.5t11.5 17t8 14.5t6 14.5t1.5 12.5q0 34 -26 34q-15 0 -20.5 -10.5t-5.5 -36.5v-7h-82v31q0 48 27.5 70.5t86.5 22.5 q104 0 104 -100q0 -50 -33 -94l-97 -127h131v-67h-219z"/>
<glyph unicode="¾" glyph-name="threequarters" horiz-adv-x="715" d="M14 412h91v-35q0 -20 23 -20q24 0 24 19v64q0 14 -7 19t-25 5h-32v69h30q34 0 34 23v44q0 19 -24 19q-23 0 -23 -20v-34h-85v39q0 83 105 83q113 0 113 -87v-35q0 -30 -14 -45t-49 -20q65 -3 65 -67v-55q0 -47 -25.5 -67.5t-85.5 -20.5q-115 0 -115 79v43zM107 -14 l431 706h69l-429 -706h-71zM587 159l5 153l-65 -153h60zM587 0v94h-136v73l97 213h124v-219h30v-67h-30v-94h-85z"/>
<glyph unicode="¿" glyph-name="questiondown" horiz-adv-x="384" d="M140 583v130h129v-130h-129zM356 213v-64q0 -84 -38.5 -123.5t-122.5 -39.5q-89 0 -130.5 43.5t-41.5 137.5q0 52 11.5 84.5t38.5 68.5q7 9 23 28.5t23 29t14 27t7 35.5v59h134v-83q0 -33 -12.5 -60t-40.5 -64q-7 -10 -21.5 -28.5t-20.5 -27t-11.5 -21t-5.5 -23.5v-50 q0 -36 33 -36q34 0 34 39v68h127z"/>
<glyph unicode="À" glyph-name="Agrave" d="M178 255h78l-38 336zM0 0l122 713h191l122 -713h-147l-16 125h-109l-16 -125h-147zM75 962h126l96 -181h-69z"/>
<glyph unicode="Á" glyph-name="Aacute" d="M178 255h78l-38 336zM0 0l122 713h191l122 -713h-147l-16 125h-109l-16 -125h-147zM235 962h126l-153 -181h-69z"/>
<glyph unicode="Â" glyph-name="Acircumflex" d="M178 255h78l-38 336zM0 0l122 713h191l122 -713h-147l-16 125h-109l-16 -125h-147zM160 962h116l96 -181h-69l-85 107l-86 -107h-68z"/>
<glyph unicode="Ã" glyph-name="Atilde" d="M178 255h78l-38 336zM0 0l122 713h191l122 -713h-147l-16 125h-109l-16 -125h-147zM319 938h54q-25 -118 -102 -118q-20 0 -36 5l-43 13q-16 5 -32 5q-32 0 -43 -38h-54q23 115 100 115q20 0 42 -7l45 -12q12 -4 27 -4q32 0 42 41z"/>
<glyph unicode="Ä" glyph-name="Adieresis" d="M178 255h78l-38 336zM0 0l122 713h191l122 -713h-147l-16 125h-109l-16 -125h-147zM78 930h110v-120h-110v120zM248 930h110v-120h-110v120z"/>
<glyph unicode="Å" glyph-name="Aring" d="M0 0l122 687h191l122 -687h-147l-16 123h-109l-16 -123h-147zM178 250h78l-38 329zM217 897q-24 0 -40.5 -16.5t-16.5 -39.5q0 -24 16 -40.5t41 -16.5t41.5 16.5t16.5 40.5q0 23 -17 39.5t-41 16.5zM218 963q52 0 88 -35.5t36 -86.5q0 -50 -36 -85.5t-88 -35.5t-88 35.5 t-36 85.5q0 51 36 86.5t88 35.5z"/>
<glyph unicode="Æ" glyph-name="AE" horiz-adv-x="637" d="M288 258v341h-11l-74 -341h85zM0 0l167 713h420v-130h-160v-146h154v-130h-154v-178h160v-129h-299v129h-112l-32 -129h-144z"/>
<glyph unicode="Ç" glyph-name="Ccedilla" horiz-adv-x="444" d="M410 172q0 -105 -40.5 -145.5t-144.5 -40.5q-105 0 -145 40.5t-40 145.5v369q0 105 40 145.5t145 40.5q104 0 144.5 -40.5t40.5 -145.5v-80h-141v77q0 34 -10.5 49t-34.5 15q-23 0 -33 -15t-10 -47v-367q0 -35 9.5 -48.5t33.5 -13.5q25 0 35 15.5t10 52.5v84h141v-91z M244 0v-44q102 0 102 -93q0 -47 -28.5 -72.5t-82.5 -25.5q-47 0 -116 21v63q70 -21 104 -21q38 0 38 36q0 34 -47 34q-13 0 -21 -1v103h51z"/>
<glyph unicode="È" glyph-name="Egrave" horiz-adv-x="396" d="M348 713v-130h-160v-146h154v-130h-154v-177h160v-130h-299v713h299zM55 962h126l96 -181h-69z"/>
<glyph unicode="É" glyph-name="Eacute" horiz-adv-x="396" d="M348 713v-130h-160v-146h154v-130h-154v-177h160v-130h-299v713h299zM215 962h126l-153 -181h-69z"/>
<glyph unicode="Ê" glyph-name="Ecircumflex" horiz-adv-x="396" d="M348 713v-130h-160v-146h154v-130h-154v-177h160v-130h-299v713h299zM140 962h116l96 -181h-69l-85 107l-86 -107h-68z"/>
<glyph unicode="Ë" glyph-name="Edieresis" horiz-adv-x="396" d="M348 713v-130h-160v-146h154v-130h-154v-177h160v-130h-299v713h299zM58 930h110v-120h-110v120zM228 930h110v-120h-110v120z"/>
<glyph unicode="Ì" glyph-name="Igrave" horiz-adv-x="250" d="M197 713v-713h-144v713h144zM-18 962h126l96 -181h-69z"/>
<glyph unicode="Í" glyph-name="Iacute" horiz-adv-x="250" d="M197 713v-713h-144v713h144zM142 962h126l-153 -181h-69z"/>
<glyph unicode="Î" glyph-name="Icircumflex" horiz-adv-x="250" d="M197 713v-713h-144v713h144zM67 962h116l96 -181h-69l-85 107l-86 -107h-68z"/>
<glyph unicode="Ï" glyph-name="Idieresis" horiz-adv-x="250" d="M197 713v-713h-144v713h144zM-15 930h110v-120h-110v120zM155 930h110v-120h-110v120z"/>
<glyph unicode="Ð" glyph-name="Eth" horiz-adv-x="463" d="M227 713q106 0 151.5 -30.5t45.5 -109.5v-430q0 -81 -45 -112t-152 -31h-171v328h-49v69h49v316h171zM195 328v-199q9 0 18.5 -0.5t14 -1t6.5 -0.5q26 0 37 11.5t11 38.5v361q0 28 -12 38t-43 10q-20 0 -32 -1v-188h39v-69h-39z"/>
<glyph unicode="Ñ" glyph-name="Ntilde" horiz-adv-x="560" d="M316 0q-80 295 -143 578l4 -578h-128v713h192q87 -325 143 -578l-4 578h130v-713h-194zM381 938h54q-25 -118 -102 -118q-20 0 -36 5l-43 13q-16 5 -32 5q-32 0 -43 -38h-54q23 115 100 115q20 0 42 -7l45 -12q12 -4 27 -4q32 0 42 41z"/>
<glyph unicode="Ò" glyph-name="Ograve" horiz-adv-x="449" d="M409 172q0 -105 -39.5 -145.5t-144.5 -40.5t-145 40.5t-40 145.5v369q0 105 40 145.5t145 40.5t144.5 -40.5t39.5 -145.5v-369zM180 538v-363q0 -64 43 -64q29 0 38 15.5t9 54.5v356q0 36 -9 50.5t-36 14.5q-25 0 -35 -15.5t-10 -48.5zM82 962h126l96 -181h-69z"/>
<glyph unicode="Ó" glyph-name="Oacute" horiz-adv-x="449" d="M409 172q0 -105 -39.5 -145.5t-144.5 -40.5t-145 40.5t-40 145.5v369q0 105 40 145.5t145 40.5t144.5 -40.5t39.5 -145.5v-369zM180 538v-363q0 -64 43 -64q29 0 38 15.5t9 54.5v356q0 36 -9 50.5t-36 14.5q-25 0 -35 -15.5t-10 -48.5zM242 962h126l-153 -181h-69z"/>
<glyph unicode="Ô" glyph-name="Ocircumflex" horiz-adv-x="449" d="M409 172q0 -105 -39.5 -145.5t-144.5 -40.5t-145 40.5t-40 145.5v369q0 105 40 145.5t145 40.5t144.5 -40.5t39.5 -145.5v-369zM180 538v-363q0 -64 43 -64q29 0 38 15.5t9 54.5v356q0 36 -9 50.5t-36 14.5q-25 0 -35 -15.5t-10 -48.5zM167 962h116l96 -181h-69l-85 107 l-86 -107h-68z"/>
<glyph unicode="Õ" glyph-name="Otilde" horiz-adv-x="449" d="M409 172q0 -105 -39.5 -145.5t-144.5 -40.5t-145 40.5t-40 145.5v369q0 105 40 145.5t145 40.5t144.5 -40.5t39.5 -145.5v-369zM180 538v-363q0 -64 43 -64q29 0 38 15.5t9 54.5v356q0 36 -9 50.5t-36 14.5q-25 0 -35 -15.5t-10 -48.5zM326 938h54q-25 -118 -102 -118 q-20 0 -36 5l-43 13q-16 5 -32 5q-32 0 -43 -38h-54q23 115 100 115q20 0 42 -7l45 -12q12 -4 27 -4q32 0 42 41z"/>
<glyph unicode="Ö" glyph-name="Odieresis" horiz-adv-x="449" d="M409 172q0 -105 -39.5 -145.5t-144.5 -40.5t-145 40.5t-40 145.5v369q0 105 40 145.5t145 40.5t144.5 -40.5t39.5 -145.5v-369zM180 538v-363q0 -64 43 -64q29 0 38 15.5t9 54.5v356q0 36 -9 50.5t-36 14.5q-25 0 -35 -15.5t-10 -48.5zM85 930h110v-120h-110v120z M255 930h110v-120h-110v120z"/>
<glyph unicode="×" glyph-name="multiply" horiz-adv-x="833" d="M197 580l224 -224l225 224l57 -57l-224 -225l224 -224l-57 -58l-225 225l-224 -225l-57 58l224 224l-224 225z"/>
<glyph unicode="Ø" glyph-name="Oslash" horiz-adv-x="449" d="M180 538v-226l90 219v14q0 30 -10.5 43.5t-34.5 13.5q-25 0 -35 -15.5t-10 -48.5zM409 172q0 -105 -39.5 -145.5t-144.5 -40.5q-90 0 -133 30l-32 -72l-46 22l43 93q-17 34 -17 113v369q0 105 40 145.5t145 40.5q93 0 125 -26l28 58l48 -22l-38 -79q21 -30 21 -117v-369z M270 181v235l-90 -216v-15q0 -40 9.5 -57t33.5 -17q29 0 38 15.5t9 54.5z"/>
<glyph unicode="Ù" glyph-name="Ugrave" horiz-adv-x="458" d="M49 713h139v-517q0 -50 6.5 -68t34.5 -18t34.5 17.5t6.5 67.5v518h139v-563q0 -90 -40 -127t-140 -37t-140 37t-40 127v563zM86 962h126l96 -181h-69z"/>
<glyph unicode="Ú" glyph-name="Uacute" horiz-adv-x="458" d="M49 713h139v-517q0 -50 6.5 -68t34.5 -18t34.5 17.5t6.5 67.5v518h139v-563q0 -90 -40 -127t-140 -37t-140 37t-40 127v563zM246 962h126l-153 -181h-69z"/>
<glyph unicode="Û" glyph-name="Ucircumflex" horiz-adv-x="458" d="M49 713h139v-517q0 -50 6.5 -68t34.5 -18t34.5 17.5t6.5 67.5v518h139v-563q0 -90 -40 -127t-140 -37t-140 37t-40 127v563zM171 962h116l96 -181h-69l-85 107l-86 -107h-68z"/>
<glyph unicode="Ü" glyph-name="Udieresis" horiz-adv-x="458" d="M49 713h139v-517q0 -50 6.5 -68t34.5 -18t34.5 17.5t6.5 67.5v518h139v-563q0 -90 -40 -127t-140 -37t-140 37t-40 127v563zM89 930h110v-120h-110v120zM259 930h110v-120h-110v120z"/>
<glyph unicode="Ý" glyph-name="Yacute" horiz-adv-x="442" d="M153 0v269l-153 444h152l70 -301l69 301h152l-153 -444v-269h-137zM238 962h126l-153 -181h-69z"/>
<glyph unicode="Þ" glyph-name="Thorn" horiz-adv-x="449" d="M49 0v713h139v-116h29q101 0 145.5 -33t44.5 -114v-168q0 -75 -38 -111t-120 -36h-61v-135h-139zM188 471v-211q7 -1 19 -1q31 0 45 13.5t14 45.5v100q0 28 -14 41t-45 13q-12 0 -19 -1z"/>
<glyph unicode="ß" glyph-name="germandbls" horiz-adv-x="444" d="M46 0v541q0 98 37 139.5t135 41.5q87 0 132.5 -37t45.5 -108q0 -52 -24.5 -80t-77.5 -38q109 -15 109 -103v-210q0 -76 -23.5 -108t-92.5 -38h-56v127q21 2 29.5 11.5t8.5 32.5v180q0 23 -8.5 32.5t-29.5 11.5v124q16 1 26 13t10 31q0 20 -11.5 31.5t-30.5 11.5 q-24 0 -34.5 -14t-10.5 -45q0 -13 1 -20v-527h-135z"/>
<glyph unicode="à" glyph-name="agrave" horiz-adv-x="433" d="M169 176v-45q0 -42 38 -42q34 0 43 36v132q-13 -9 -32 -20t-27.5 -16t-15 -16.5t-6.5 -28.5zM264 -1q-7 23 -11 48q-37 -60 -103 -60q-61 0 -88 38.5t-27 121.5q0 65 19 102t62 52q16 6 39.5 13.5t35 11.5t25.5 10t20.5 12t11 15t4.5 21q0 19 -10 30t-28 11 q-38 0 -38 -58q0 -2 0.5 -7.5t0.5 -8.5h-123v18q0 83 40 122t125 39t124.5 -37t39.5 -116v-245q0 -102 13 -133h-132zM80 765h126l96 -181h-69z"/>
<glyph unicode="á" glyph-name="aacute" horiz-adv-x="433" d="M169 176v-45q0 -42 38 -42q34 0 43 36v132q-13 -9 -32 -20t-27.5 -16t-15 -16.5t-6.5 -28.5zM264 -1q-7 23 -11 48q-37 -60 -103 -60q-61 0 -88 38.5t-27 121.5q0 65 19 102t62 52q16 6 39.5 13.5t35 11.5t25.5 10t20.5 12t11 15t4.5 21q0 19 -10 30t-28 11 q-38 0 -38 -58q0 -2 0.5 -7.5t0.5 -8.5h-123v18q0 83 40 122t125 39t124.5 -37t39.5 -116v-245q0 -102 13 -133h-132zM240 765h126l-153 -181h-69z"/>
<glyph unicode="â" glyph-name="acircumflex" horiz-adv-x="433" d="M169 176v-45q0 -42 38 -42q34 0 43 36v132q-13 -9 -32 -20t-27.5 -16t-15 -16.5t-6.5 -28.5zM264 -1q-7 23 -11 48q-37 -60 -103 -60q-61 0 -88 38.5t-27 121.5q0 65 19 102t62 52q16 6 39.5 13.5t35 11.5t25.5 10t20.5 12t11 15t4.5 21q0 19 -10 30t-28 11 q-38 0 -38 -58q0 -2 0.5 -7.5t0.5 -8.5h-123v18q0 83 40 122t125 39t124.5 -37t39.5 -116v-245q0 -102 13 -133h-132zM165 765h116l96 -181h-69l-85 107l-86 -107h-68z"/>
<glyph unicode="ã" glyph-name="atilde" horiz-adv-x="433" d="M169 176v-45q0 -42 38 -42q34 0 43 36v132q-13 -9 -32 -20t-27.5 -16t-15 -16.5t-6.5 -28.5zM264 -1q-7 23 -11 48q-37 -60 -103 -60q-61 0 -88 38.5t-27 121.5q0 65 19 102t62 52q16 6 39.5 13.5t35 11.5t25.5 10t20.5 12t11 15t4.5 21q0 19 -10 30t-28 11 q-38 0 -38 -58q0 -2 0.5 -7.5t0.5 -8.5h-123v18q0 83 40 122t125 39t124.5 -37t39.5 -116v-245q0 -102 13 -133h-132zM324 741h54q-25 -118 -102 -118q-20 0 -36 5l-43 13q-16 5 -32 5q-32 0 -43 -38h-54q23 115 100 115q20 0 42 -7l45 -12q12 -4 27 -4q32 0 42 41z"/>
<glyph unicode="ä" glyph-name="adieresis" horiz-adv-x="433" d="M169 176v-45q0 -42 38 -42q34 0 43 36v132q-13 -9 -32 -20t-27.5 -16t-15 -16.5t-6.5 -28.5zM264 -1q-7 23 -11 48q-37 -60 -103 -60q-61 0 -88 38.5t-27 121.5q0 65 19 102t62 52q16 6 39.5 13.5t35 11.5t25.5 10t20.5 12t11 15t4.5 21q0 19 -10 30t-28 11 q-38 0 -38 -58q0 -2 0.5 -7.5t0.5 -8.5h-123v18q0 83 40 122t125 39t124.5 -37t39.5 -116v-245q0 -102 13 -133h-132zM83 733h110v-120h-110v120zM253 733h110v-120h-110v120z"/>
<glyph unicode="å" glyph-name="aring" horiz-adv-x="433" d="M169 176v-45q0 -42 38 -42q34 0 43 36v132q-13 -9 -32 -20t-27.5 -16t-15 -16.5t-6.5 -28.5zM264 -1q-7 23 -11 48q-37 -60 -103 -60q-61 0 -88 38.5t-27 121.5q0 65 19 102t62 52q16 6 39.5 13.5t35 11.5t25.5 10t20.5 12t11 15t4.5 21q0 19 -10 30t-28 11 q-38 0 -38 -58q0 -2 0.5 -7.5t0.5 -8.5h-123v18q0 83 40 122t125 39t124.5 -37t39.5 -116v-245q0 -102 13 -133h-132zM231 822q55 0 92.5 -37.5t37.5 -91.5q0 -55 -37.5 -93t-92.5 -38t-92.5 38t-37.5 93q0 54 38 91.5t92 37.5zM231 752q-25 0 -42.5 -17.5t-17.5 -42.5 t17 -42t43 -17q25 0 42.5 17t17.5 42t-17.5 42.5t-42.5 17.5z"/>
<glyph unicode="æ" glyph-name="ae" horiz-adv-x="632" d="M169 176v-45q0 -42 38 -42q34 0 43 36v132q-13 -9 -32 -20t-27.5 -16t-15 -16.5t-6.5 -28.5zM384 318h87v60q0 47 -44 47q-43 0 -43 -47v-60zM596 181v-35q0 -83 -39.5 -122t-122.5 -39q-59 0 -94.5 17.5t-56.5 58.5q-27 -41 -57 -57.5t-76 -16.5q-61 0 -88 38.5 t-27 121.5q0 65 19 102t62 52q16 6 39.5 13.5t35 11.5t25.5 10t20.5 12t11 15t4.5 21q0 19 -10 30t-28 11q-38 0 -38 -58q0 -2 0.5 -7.5t0.5 -8.5h-123q0 3 -0.5 10t-0.5 10q0 160 162 160q61 0 106 -44q46 44 106 44q169 0 169 -157v-146h-212v-90q0 -48 45 -48q42 0 42 48 v43h125z"/>
<glyph unicode="ç" glyph-name="ccedilla" horiz-adv-x="403" d="M369 206v-74q0 -75 -41 -110.5t-126 -35.5q-93 0 -130 41t-37 138v181q0 96 39 140t128 44q79 0 123 -39.5t44 -107.5v-64h-130v50q0 28 -7.5 40t-25.5 12q-20 0 -27.5 -11t-7.5 -37v-217q0 -34 6.5 -47.5t28.5 -13.5q18 0 25.5 12t7.5 40v59h130zM220 0v-44 q102 0 102 -93q0 -47 -28.5 -72.5t-82.5 -25.5q-47 0 -116 21v63q70 -21 104 -21q38 0 38 36q0 34 -47 34q-13 0 -21 -1v103h51z"/>
<glyph unicode="è" glyph-name="egrave" horiz-adv-x="421" d="M172 318h87v60q0 47 -45 47q-42 0 -42 -47v-60zM384 181v-35q0 -83 -39 -121.5t-123 -38.5q-96 0 -140.5 33t-44.5 108v258q0 75 43.5 110.5t134.5 35.5q169 0 169 -157v-146h-212v-90q0 -25 10.5 -35.5t35.5 -10.5q41 0 41 46v43h125zM68 765h126l96 -181h-69z"/>
<glyph unicode="é" glyph-name="eacute" horiz-adv-x="421" d="M172 318h87v60q0 47 -45 47q-42 0 -42 -47v-60zM384 181v-35q0 -83 -39 -121.5t-123 -38.5q-96 0 -140.5 33t-44.5 108v258q0 75 43.5 110.5t134.5 35.5q169 0 169 -157v-146h-212v-90q0 -25 10.5 -35.5t35.5 -10.5q41 0 41 46v43h125zM228 765h126l-153 -181h-69z"/>
<glyph unicode="ê" glyph-name="ecircumflex" horiz-adv-x="421" d="M172 318h87v60q0 47 -45 47q-42 0 -42 -47v-60zM384 181v-35q0 -83 -39 -121.5t-123 -38.5q-96 0 -140.5 33t-44.5 108v258q0 75 43.5 110.5t134.5 35.5q169 0 169 -157v-146h-212v-90q0 -25 10.5 -35.5t35.5 -10.5q41 0 41 46v43h125zM153 765h116l96 -181h-69l-85 107 l-86 -107h-68z"/>
<glyph unicode="ë" glyph-name="edieresis" horiz-adv-x="421" d="M172 318h87v60q0 47 -45 47q-42 0 -42 -47v-60zM384 181v-35q0 -83 -39 -121.5t-123 -38.5q-96 0 -140.5 33t-44.5 108v258q0 75 43.5 110.5t134.5 35.5q169 0 169 -157v-146h-212v-90q0 -25 10.5 -35.5t35.5 -10.5q41 0 41 46v43h125zM71 733h110v-120h-110v120z M241 733h110v-120h-110v120z"/>
<glyph unicode="ì" glyph-name="igrave" horiz-adv-x="241" d="M51 0v516h139v-516h-139zM-22 765h126l96 -181h-69z"/>
<glyph unicode="í" glyph-name="iacute" horiz-adv-x="241" d="M51 0v516h139v-516h-139zM138 765h126l-153 -181h-69z"/>
<glyph unicode="î" glyph-name="icircumflex" horiz-adv-x="241" d="M51 0v516h139v-516h-139zM63 765h116l96 -181h-69l-85 107l-86 -107h-68z"/>
<glyph unicode="ï" glyph-name="idieresis" horiz-adv-x="241" d="M51 0v516h139v-516h-139zM-19 733h110v-120h-110v120zM151 733h110v-120h-110v120z"/>
<glyph unicode="ð" glyph-name="eth" horiz-adv-x="421" d="M172 354v-195q0 -34 8.5 -49t29.5 -15q26 0 33 15t7 55v190q0 37 -7.5 52t-32.5 15q-24 0 -31 -15t-7 -53zM35 364q0 83 37 121.5t119 38.5q14 0 21 -1q-20 35 -42 59l-79 -49l-28 46l70 43l-34 32l62 80q28 -17 69 -51l80 51l28 -48l-67 -42q116 -117 116 -276v-217 q0 -91 -39.5 -128t-136.5 -37q-98 0 -137 37t-39 128v213z"/>
<glyph unicode="ñ" glyph-name="ntilde" horiz-adv-x="440" d="M46 0v516h128v-64q43 78 118 78q106 0 106 -137v-393h-134v347q0 42 -7.5 59.5t-31.5 17.5q-44 0 -44 -72v-352h-135zM321 741h54q-25 -118 -102 -118q-20 0 -36 5l-43 13q-16 5 -32 5q-32 0 -43 -38h-54q23 115 100 115q20 0 42 -7l45 -12q12 -4 27 -4q32 0 42 41z"/>
<glyph unicode="ò" glyph-name="ograve" horiz-adv-x="421" d="M387 368v-217q0 -91 -39.5 -128t-136.5 -37q-98 0 -137 37t-39 128v217q0 88 40 125t136 37q97 0 136.5 -36.5t39.5 -125.5zM250 355q0 37 -7.5 52t-32.5 15q-24 0 -31 -15t-7 -53v-195q0 -34 8.5 -49t29.5 -15q26 0 33 15t7 55v190zM68 765h126l96 -181h-69z"/>
<glyph unicode="ó" glyph-name="oacute" horiz-adv-x="421" d="M387 368v-217q0 -91 -39.5 -128t-136.5 -37q-98 0 -137 37t-39 128v217q0 88 40 125t136 37q97 0 136.5 -36.5t39.5 -125.5zM250 355q0 37 -7.5 52t-32.5 15q-24 0 -31 -15t-7 -53v-195q0 -34 8.5 -49t29.5 -15q26 0 33 15t7 55v190zM228 765h126l-153 -181h-69z"/>
<glyph unicode="ô" glyph-name="ocircumflex" horiz-adv-x="421" d="M387 368v-217q0 -91 -39.5 -128t-136.5 -37q-98 0 -137 37t-39 128v217q0 88 40 125t136 37q97 0 136.5 -36.5t39.5 -125.5zM250 355q0 37 -7.5 52t-32.5 15q-24 0 -31 -15t-7 -53v-195q0 -34 8.5 -49t29.5 -15q26 0 33 15t7 55v190zM153 765h116l96 -181h-69l-85 107 l-86 -107h-68z"/>
<glyph unicode="õ" glyph-name="otilde" horiz-adv-x="421" d="M387 368v-217q0 -91 -39.5 -128t-136.5 -37q-98 0 -137 37t-39 128v217q0 88 40 125t136 37q97 0 136.5 -36.5t39.5 -125.5zM250 355q0 37 -7.5 52t-32.5 15q-24 0 -31 -15t-7 -53v-195q0 -34 8.5 -49t29.5 -15q26 0 33 15t7 55v190zM312 741h54q-25 -118 -102 -118 q-20 0 -36 5l-43 13q-16 5 -32 5q-32 0 -43 -38h-54q23 115 100 115q20 0 42 -7l45 -12q12 -4 27 -4q32 0 42 41z"/>
<glyph unicode="ö" glyph-name="odieresis" horiz-adv-x="421" d="M387 368v-217q0 -91 -39.5 -128t-136.5 -37q-98 0 -137 37t-39 128v217q0 88 40 125t136 37q97 0 136.5 -36.5t39.5 -125.5zM250 355q0 37 -7.5 52t-32.5 15q-24 0 -31 -15t-7 -53v-195q0 -34 8.5 -49t29.5 -15q26 0 33 15t7 55v190zM71 733h110v-120h-110v120zM241 733 h110v-120h-110v120z"/>
<glyph unicode="÷" glyph-name="divide" horiz-adv-x="833" d="M417 551q28 0 47.5 -20t19.5 -48q0 -27 -19.5 -46.5t-47.5 -19.5t-47.5 19t-19.5 47t20 48t47 20zM124 339h585v-81h-585v81zM417 179q28 0 47.5 -19.5t19.5 -47.5q0 -27 -19.5 -46.5t-47.5 -19.5t-47.5 19t-19.5 47t20 47.5t47 19.5z"/>
<glyph unicode="ø" glyph-name="oslash" horiz-adv-x="421" d="M35 368q0 88 40 125t136 37q65 0 92 -13l27 54l45 -24l-28 -55q40 -29 40 -124v-217q0 -91 -39.5 -128t-136.5 -37q-71 0 -114 21l-31 -66l-44 21l37 74q-24 32 -24 115v217zM166 215l83 192q-11 15 -38 15q-28 0 -36.5 -15t-8.5 -53v-139zM259 336l-93 -206 q7 -35 48 -35q29 0 37 15t8 55v171z"/>
<glyph unicode="ù" glyph-name="ugrave" horiz-adv-x="440" d="M393 516v-516h-127v64q-44 -78 -119 -78q-105 0 -105 137v393h138v-352q0 -39 6.5 -54t30.5 -15q42 0 42 69v352h134zM77 765h126l96 -181h-69z"/>
<glyph unicode="ú" glyph-name="uacute" horiz-adv-x="440" d="M393 516v-516h-127v64q-44 -78 -119 -78q-105 0 -105 137v393h138v-352q0 -39 6.5 -54t30.5 -15q42 0 42 69v352h134zM237 765h126l-153 -181h-69z"/>
<glyph unicode="û" glyph-name="ucircumflex" horiz-adv-x="440" d="M393 516v-516h-127v64q-44 -78 -119 -78q-105 0 -105 137v393h138v-352q0 -39 6.5 -54t30.5 -15q42 0 42 69v352h134zM162 765h116l96 -181h-69l-85 107l-86 -107h-68z"/>
<glyph unicode="ü" glyph-name="udieresis" horiz-adv-x="440" d="M393 516v-516h-127v64q-44 -78 -119 -78q-105 0 -105 137v393h138v-352q0 -39 6.5 -54t30.5 -15q42 0 42 69v352h134zM80 733h110v-120h-110v120zM250 733h110v-120h-110v120z"/>
<glyph unicode="ý" glyph-name="yacute" horiz-adv-x="394" d="M60 -44h57q24 0 24 23q0 8 -1 12l-138 525h139l68 -404l50 404h133l-118 -564q-15 -72 -38.5 -100t-86.5 -28h-89v132zM214 765h126l-153 -181h-69z"/>
<glyph unicode="þ" glyph-name="thorn" horiz-adv-x="436" d="M181 154q0 -31 7 -43.5t31 -12.5t31 12.5t7 43.5v208q0 30 -7.5 43t-30.5 13q-24 0 -31 -12.5t-7 -43.5v-208zM174 713v-261q43 78 118 78q102 0 102 -137v-270q0 -137 -101 -137q-75 0 -112 78v-245h-135v894h128z"/>
</font>
</defs>
</svg>
