<svg xmlns="http://www.w3.org/2000/svg" width="14" height="11" viewBox="0 0 14 11">
    <path fill="#FFF" fill-rule="nonzero" d="M12.25 0H1.75A1.74 1.74 0 0 0 0 1.728v6.914a1.74 1.74 0 0 0 1.75 1.728h10.5A1.74 1.74 0 0 0 14 8.642V1.728A1.74 1.74 0 0 0 12.25 0zM9.37 4.612l3.704-3.135a.824.824 0 0 1 .051.251v6.914c0 .06-.023.113-.035.17l-3.72-4.2zM12.25.864c.058 0 .11.022.164.033L7 5.481 1.586.897c.055-.01.106-.033.164-.033h10.5zM.91 8.811C.898 8.754.875 8.7.875 8.642V1.728c0-.09.026-.17.052-.251L4.63 4.61l-3.72 4.2zm.84.695c-.088 0-.169-.025-.25-.05l3.794-4.282 1.421 1.203a.436.436 0 0 0 .57 0l1.42-1.203L12.5 9.456c-.08.025-.161.05-.25.05H1.75z" opacity=".757"/>
</svg>
