<svg xmlns="http://www.w3.org/2000/svg" xmlns:xlink="http://www.w3.org/1999/xlink" width="19" height="16" viewBox="0 0 19 16">
    <defs>
        <path id="a" d="M2.47 4.263a1.75 1.75 0 0 0 0-3.5A1.75 1.75 0 0 0 .722 2.512c0 .962.786 1.751 1.748 1.751z"/>
        <path id="b" d="M2.47 9.665A1.75 1.75 0 0 0 4.22 7.916 1.749 1.749 0 1 0 2.47 9.665z"/>
        <path id="c" d="M2.47 15.07A1.75 1.75 0 0 0 4.22 13.32a1.75 1.75 0 0 0-1.749-1.748c-.962 0-1.748.786-1.748 1.748s.786 1.749 1.748 1.749z"/>
    </defs>
    <g fill="none" fill-rule="nonzero">
        <g>
            <use fill="#FFF" fill-rule="evenodd" xlink:href="#a"/>
            <path stroke="#FFF" d="M2.47 3.763a1.25 1.25 0 0 0 0-2.5 1.25 1.25 0 0 0-1.248 1.249c0 .687.563 1.251 1.248 1.251z"/>
        </g>
        <g>
            <use fill="#FFF" fill-rule="evenodd" xlink:href="#b"/>
            <path stroke="#FFF" d="M2.47 9.165A1.25 1.25 0 0 0 3.72 7.916 1.249 1.249 0 1 0 2.47 9.165z"/>
        </g>
        <g>
            <use fill="#FFF" fill-rule="evenodd" xlink:href="#c"/>
            <path stroke="#FFF" d="M2.47 14.57A1.25 1.25 0 0 0 3.72 13.32a1.25 1.25 0 0 0-1.249-1.248c-.686 0-1.248.562-1.248 1.248 0 .686.562 1.249 1.248 1.249z"/>
        </g>
        <path fill="#FFF" stroke="#FFF" stroke-width="2" d="M7.558 2.92h10.003a.408.408 0 1 0 0-.817H7.558a.408.408 0 1 0 0 .817zM7.558 8.325h10.003a.408.408 0 1 0 0-.817H7.558a.408.408 0 1 0 0 .817zM7.558 13.726h10.003a.408.408 0 1 0 0-.816H7.558a.408.408 0 1 0 0 .816z"/>
    </g>
</svg>
