<svg xmlns="http://www.w3.org/2000/svg" width="14" height="12" viewBox="0 0 14 12">
    <g fill="#FFF" fill-rule="evenodd" opacity=".757">
        <path d="M8.227 3.648V.738l4.822 4.85-4.822 4.847V7.527S3.945 6.49 1.02 11.406c0 0-.73-3.752 2.537-6.47 0 0 1.48-1.385 4.67-1.288z"/>
        <path d="M.903 12.073l-.12-.622c-.007-.039-.718-3.923 2.62-6.7.05-.046 1.477-1.35 4.51-1.35h.072V.155l5.404 5.434-5.404 5.433V7.728a5.115 5.115 0 0 0-.741-.052c-1.392 0-4.021.502-6.016 3.852l-.325.545zm7.01-8.188c-2.844 0-4.178 1.214-4.19 1.227C1.416 7.031 1.168 9.5 1.197 10.677c2.985-4.36 7.032-3.398 7.086-3.385l.185.045V9.85l4.239-4.263-4.24-4.263v2.572l-.248-.008a13.354 13.354 0 0 0-.308-.004z"/>
    </g>
</svg>
