<svg xmlns="http://www.w3.org/2000/svg" width="22" height="21" viewBox="0 0 22 21">
    <path fill="#FFF" fill-rule="nonzero" d="M11.287 0C7.525 0 4.192 2.042 2.472 5.16L0 2.687v6.987h6.987l-3.01-3.01c1.398-2.687 4.085-4.514 7.31-4.514 4.407 0 8.062 3.655 8.062 8.062s-3.655 8.062-8.062 8.062c-3.547 0-6.45-2.257-7.632-5.375H1.397c1.183 4.3 5.16 7.525 9.89 7.525 5.697 0 10.212-4.622 10.212-10.212S16.877 0 11.287 0zM9.674 5.375v5.482l5.053 3.01.86-1.398-4.3-2.58V5.375H9.674z" opacity=".9"/>
</svg>
