<svg xmlns="http://www.w3.org/2000/svg" width="20" height="19" viewBox="0 0 20 19">
    <path fill="#FFF" fill-rule="nonzero" d="M19.488 1.489l-6.17-1.47a.676.676 0 0 0-.308-.002h-.003L6.841 1.453.825.018a.674.674 0 0 0-.57.124.66.66 0 0 0-.255.52v13.82c0 .306.212.572.512.643l6.17 1.47a.676.676 0 0 0 .31.001l2.08-.484.99 1.963c.283.562.87.925 1.494.925.25 0 .49-.056.713-.166.806-.398 1.127-1.385.715-2.202l-.644-1.28.819-.19 6.016 1.433a.676.676 0 0 0 .57-.123.66.66 0 0 0 .255-.52V2.132a.663.663 0 0 0-.512-.643zm-9.255 11.725l-.048.001-.352-.697a4.45 4.45 0 0 0 1.696-2.249 4.407 4.407 0 0 0-.242-3.42 4.503 4.503 0 0 0-3.779-2.472v-1.72l4.984-1.16v12.46l-.766.178a1.69 1.69 0 0 0-1.493-.921zm-3-7.522c1.219 0 2.313.67 2.857 1.748a3.145 3.145 0 0 1-1.43 4.232c-.448.22-.926.332-1.42.332a3.177 3.177 0 0 1-2.857-1.747 3.144 3.144 0 0 1 1.43-4.232c.447-.22.925-.333 1.42-.333zm.275 7.628a4.5 4.5 0 0 0 1.127-.213l.352.699a1.633 1.633 0 0 0-.361 1.05l-1.118.26V13.32zm-6.17.64V1.502L6.17 2.653v1.841a4.57 4.57 0 0 0-.955.346c-2.233 1.102-3.144 3.797-2.03 6.007a4.49 4.49 0 0 0 2.985 2.356v1.909L1.338 13.96zm10.334 3.69a.26.26 0 0 1-.116.026.341.341 0 0 1-.298-.192l-1.256-2.493c-.08-.16-.028-.356.115-.426a.26.26 0 0 1 .116-.027c.122 0 .239.075.298.192l1.256 2.493c.081.16.028.356-.115.427zm6.99-2.538L13.83 13.96V1.502l4.833 1.151v12.459z"/>
</svg>
