<svg xmlns="http://www.w3.org/2000/svg" width="24" height="24" viewBox="0 0 24 24">
    <path fill="none" fill-rule="nonzero" stroke="#FFF" stroke-width="2" d="M19.622 9.145l-.545-1.295s1.268-2.861 1.156-2.971L18.554 3.24c-.116-.113-2.978 1.193-2.978 1.193l-1.32-.533S13.09 1 12.93 1h-2.369c-.165 0-1.244 2.906-1.244 2.906l-1.318.535S5.077 3.199 4.965 3.31L3.289 4.951c-.116.113 1.218 2.916 1.218 2.916L3.962 9.16S1 10.301 1 10.455v2.322c0 .162 2.969 1.219 2.969 1.219l.545 1.291s-1.268 2.859-1.157 2.969l1.678 1.643c.114.111 2.977-1.195 2.977-1.195l1.321.535s1.166 2.898 1.327 2.898h2.369c.164 0 1.244-2.906 1.244-2.906l1.322-.535s2.916 1.242 3.029 1.133l1.678-1.641c.117-.115-1.22-2.916-1.22-2.916l.544-1.293s2.963-1.143 2.963-1.299v-2.32c.001-.161-2.967-1.215-2.967-1.215zm-4.366 2.423c0 1.867-1.553 3.387-3.461 3.387-1.906 0-3.461-1.52-3.461-3.387s1.555-3.385 3.461-3.385c1.909.001 3.461 1.518 3.461 3.385z"/>
</svg>
