<svg xmlns="http://www.w3.org/2000/svg" width="22" height="18" viewBox="0 0 22 18">
    <g fill="#FFF" fill-rule="nonzero" stroke="#FFF">
        <path d="M21.046 1.155a.641.641 0 0 0-.589-.076l-6.125 2.25-6.124-2.25a.641.641 0 0 0-.442 0L1.42 3.411a.642.642 0 0 0-.42.602v12.691a.642.642 0 0 0 .863.602l6.124-2.25 6.124 2.25c.143.053.3.053.443 0l6.346-2.331a.641.641 0 0 0 .42-.602V1.682a.641.641 0 0 0-.274-.527zm-1.01 12.77l-5.704 2.096-6.124-2.25a.641.641 0 0 0-.442 0l-5.483 2.014V4.46l5.704-2.095 6.124 2.25c.143.052.3.052.443 0l5.483-2.014v11.324z"/>
        <path d="M14.43 8.848a3.961 3.961 0 0 0-3.957-3.957 3.962 3.962 0 0 0-3.957 3.957 3.961 3.961 0 0 0 3.957 3.957c.86 0 1.656-.276 2.306-.744l1.93 1.93a.64.64 0 0 0 .907 0 .641.641 0 0 0 0-.908l-1.93-1.93c.468-.649.744-1.445.744-2.305zm-6.63 0c0-1.474 1.199-2.674 2.673-2.674 1.475 0 2.674 1.2 2.674 2.674 0 1.475-1.2 2.674-2.674 2.674A2.677 2.677 0 0 1 7.8 8.848z"/>
    </g>
</svg>
