<svg xmlns="http://www.w3.org/2000/svg" width="45" height="40" viewBox="0 0 45 40">
    <g fill="#FFF" fill-rule="nonzero">
        <path d="M44.03 34.215L25.35 1.86c-1.375-2.381-4.81-2.382-6.186 0L.484 34.215c-1.375 2.382.342 5.357 3.093 5.357h37.36c2.75 0 4.469-2.975 3.093-5.357zM40.937 36.3H3.577a.297.297 0 0 1-.259-.448l18.68-32.355a.297.297 0 0 1 .518 0l18.68 32.355a.297.297 0 0 1-.259.448z"/>
        <path d="M22.257 13.65c-.903 0-1.636.732-1.636 1.636v9.38a1.636 1.636 0 0 0 3.273 0v-9.38c0-.904-.733-1.637-1.637-1.637zM22.257 28.428c-.903 0-1.636.733-1.636 1.636v.978a1.636 1.636 0 0 0 3.273 0v-.978c0-.903-.733-1.636-1.637-1.636z"/>
    </g>
</svg>
