<svg xmlns="http://www.w3.org/2000/svg" width="55" height="45" viewBox="0 0 55 45">
    <g fill="none" fill-rule="evenodd" stroke-width="2">
        <path stroke="#979797" d="M52.263 28.192a5 5 0 0 1-7.07 7.071l-16.971-16.97 7.07-7.071 16.971 16.97zM19.737 9.808a5 5 0 1 1 7.07-7.071 5 5 0 0 1-7.07 7.07zm2.828-2.829a1 1 0 1 1 1.414-1.414 1 1 0 0 1-1.414 1.414zm25.456 25.456a1 1 0 1 1 1.414-1.414 1 1 0 0 1-1.414 1.414zM27.21 5.969l7.375 7.374-4.243 4.243-7.354-7.354 1.258-.616a5.246 5.246 0 0 0 1.422-.99c.38-.38.693-.833.94-1.362l.603-1.295z"/>
        <path stroke="#FFF" d="M9.747 9.676l17.205 17.205-7.071 7.07L2.676 16.748c-1.923-1.923-1.889-5.061.06-7.01 1.95-1.95 5.088-1.984 7.011-.06zm18.506 32.648c-1.923-1.923-1.89-5.062.06-7.01 1.95-1.95 5.088-1.984 7.01-.061 1.924 1.923 1.89 5.061-.06 7.01-1.949 1.95-5.087 1.984-7.01.06zm2.659-2.659c-.463-.462-.454-1.232.033-1.72.488-.487 1.258-.496 1.72-.033.462.462.454 1.232-.034 1.72-.487.487-1.257.495-1.72.033zM5.335 14.088c-.462-.462-.454-1.232.034-1.72.487-.487 1.257-.495 1.72-.033.462.462.453 1.232-.034 1.72-.488.487-1.258.496-1.72.033zM30.439 35.25c-.51.218-.938.503-1.291.856-.358.358-.66.806-.906 1.351l-.596 1.319-7.709-7.71 4.13-4.129 7.731 7.732-1.36.581z"/>
    </g>
</svg>
