<svg xmlns="http://www.w3.org/2000/svg" width="14" height="13" viewBox="0 0 14 13">
    <g fill="#FFF" fill-rule="nonzero" opacity=".757">
        <path d="M13.638 6.133h-1.984V2.732a.346.346 0 0 0-.099-.244L9.22.113a.334.334 0 0 0-.239-.1H2.66a.341.341 0 0 0-.339.343v5.777H.338A.341.341 0 0 0 0 6.477v4.845c0 .903.723 1.638 1.612 1.638h10.752c.889 0 1.612-.735 1.612-1.638V6.477a.341.341 0 0 0-.338-.344zm-4.32-4.947L10.5 2.388H9.318V1.186zM2.998.7h5.644v2.032c0 .19.151.343.338.343h1.998v3.058h-7.98V.7zM13.3 6.82v.482H.676v-.481H13.3zm-.936 5.453H1.612a.944.944 0 0 1-.936-.951V7.99H13.3v3.332c0 .524-.42.95-.936.95z"/>
        <path d="M11.937 9.569H2.04a.341.341 0 0 0-.339.344v1.24c0 .19.152.344.339.344h9.898a.341.341 0 0 0 .339-.344v-1.24a.341.341 0 0 0-.339-.344zm-.338 1.24H2.377v-.553h9.222v.553z"/>
    </g>
</svg>
