<svg xmlns="http://www.w3.org/2000/svg" width="22" height="22" viewBox="0 0 45 46">
	<g fill="none" fill-rule="nonzero" stroke-width="2">
		<path stroke="#d52b1f" d="M42.83 37.833a3.992 3.992 0 0 1-2.826 6.817 3.982 3.982 0 0 1-2.825-1.169L24.064 30.364l5.65-5.646L42.83 37.833zM10.051 13.526L4.34 10.573 1.35 4.79l2.788-2.788 5.779 2.993 2.958 5.707 6.948 6.956-2.818 2.823z"></path>
		<path stroke="#d52b1f" d="M8.8 28.686l.538-.053c.974 0 1.899.2 2.761.52l16.396-16.4a7.924 7.924 0 0 1-.52-2.76l.054-.539c.282-4.157 3.707-7.45 7.936-7.45 1.23 0 2.383.3 3.424.798L34.082 8.11c-.28.28-.471.61-.6.96a2.659 2.659 0 0 0 .6 2.806c.52.52 1.2.78 1.883.78.314 0 .625-.07.924-.181.348-.133.679-.32.958-.602l5.308-5.304a7.905 7.905 0 0 1 .798 3.424c0 4.229-3.294 7.654-7.45 7.936l-.538.053c-.975 0-1.9-.2-2.762-.517L16.81 33.86c.314.863.514 1.787.514 2.762l-.056.538c-.277 4.16-3.704 7.45-7.933 7.45a7.821 7.821 0 0 1-3.424-.798l5.307-5.308c.277-.277.471-.61.604-.956a2.655 2.655 0 0 0-2.487-3.59 2.62 2.62 0 0 0-.927.182c-.348.13-.681.317-.956.6l-5.307 5.306a7.877 7.877 0 0 1-.799-3.424c.003-4.23 3.297-7.654 7.454-7.936z"></path>
	</g>
</svg>