<svg xmlns="http://www.w3.org/2000/svg" width="16" height="16" viewBox="0 0 16 16">
    <path fill="#FFF" fill-rule="nonzero" d="M13.801 6.036l-.404-.96s.94-2.12.857-2.201L13.01 1.66c-.086-.084-2.207.884-2.207.884l-.979-.395S8.96 0 8.842 0H7.086c-.122 0-.922 2.154-.922 2.154l-.977.396s-2.165-.92-2.248-.838L1.696 2.928C1.61 3.012 2.6 5.09 2.6 5.09l-.404.959S0 6.893 0 7.008v1.72c0 .12 2.2.904 2.2.904l.404.956s-.94 2.12-.857 2.2l1.243 1.218c.085.083 2.207-.885 2.207-.885l.979.396s.864 2.148.983 2.148h1.756c.121 0 .922-2.154.922-2.154l.98-.396s2.16.92 2.244.84l1.244-1.217c.087-.085-.904-2.16-.904-2.16l.403-.959S16 8.772 16 8.656v-1.72c0-.118-2.199-.9-2.199-.9zm-3.236 1.796c0 1.384-1.15 2.51-2.565 2.51-1.412 0-2.565-1.126-2.565-2.51S6.588 5.323 8 5.323c1.415.001 2.565 1.125 2.565 2.51z"/>
</svg>
