<?xml version="1.0" encoding="utf-8"?>
<!-- Generator: Adobe Illustrator 19.0.0, SVG Export Plug-In . SVG Version: 6.00 Build 0)  -->
<svg version="1.1" id="Layer_1" xmlns="http://www.w3.org/2000/svg" xmlns:xlink="http://www.w3.org/1999/xlink" x="0px" y="0px"
	 viewBox="-279 380 53 34" style="enable-background:new -279 380 53 34;" xml:space="preserve">
<style type="text/css">
	.st0{fill:#FFFFFF;}
</style>
<path class="st0" d="M-230.2,390.8h-10.7v12h-37.9v4.3c0,2.1,1.7,3.7,3.8,3.7h2.5c0.6,1.9,2.4,3.1,4.3,3.1c2,0,3.8-1.3,4.3-3.1h25.3
	c0.6,1.9,2.4,3.1,4.3,3.1c2,0,3.8-1.3,4.3-3.1h3.3v-16.4C-226.4,392.5-228.1,390.8-230.2,390.8z M-268,412.5c-1.8,0-3.2-1.4-3.2-3.1
	c0-1.7,1.4-3.1,3.2-3.1c1.8,0,3.2,1.4,3.2,3.1C-264.9,411.2-266.3,412.5-268,412.5L-268,412.5z M-234,412.5c-1.8,0-3.2-1.4-3.2-3.1
	c0-1.7,1.4-3.1,3.2-3.1c1.8,0,3.2,1.4,3.2,3.1C-230.9,411.2-232.3,412.5-234,412.5z M-227.8,401.2h-2.5v-4.6h2.6L-227.8,401.2
	L-227.8,401.2z M-227.8,395.2h-3c-0.5,0-0.9,0.4-0.9,0.9v5.5c0,0.5,0.4,0.9,0.9,0.9h3v6.8h-1.7c0-2.5-2-4.5-4.6-4.5
	c-2.5,0-4.6,2-4.6,4.5h-24.9c0-2.5-2-4.5-4.6-4.5c-2.5,0-4.6,2-4.6,4.5h-2.4c-1.3,0-2.4-1.1-2.4-2.4v-3h37.8v-11.9h9.3
	c1.3,0,2.4,1.1,2.4,2.4C-227.9,394.4-227.8,395.2-227.8,395.2z"/>
<ellipse class="st0" cx="-268" cy="409.5" rx="1.5" ry="1.4"/>
<ellipse class="st0" cx="-234" cy="409.5" rx="1.5" ry="1.4"/>
</svg>
