<svg xmlns="http://www.w3.org/2000/svg" width="24" height="12" viewBox="0 0 24 12">
    <path fill="#FFF" fill-rule="nonzero" stroke="#FFF" d="M20.548 1a2.325 2.325 0 0 0-2.322 2.322c0 .467.139.902.377 1.267l-2.509 2.508a2.309 2.309 0 0 0-2.572.026l-2.535-2.535c.238-.364.377-.799.377-1.266A2.325 2.325 0 0 0 9.042 1 2.325 2.325 0 0 0 6.72 3.322c0 .467.139.902.377 1.266l-2.509 2.51a2.307 2.307 0 0 0-1.266-.378A2.325 2.325 0 0 0 1 9.042a2.325 2.325 0 0 0 2.322 2.322 2.325 2.325 0 0 0 2.322-2.322c0-.467-.139-.902-.377-1.266l2.509-2.509a2.308 2.308 0 0 0 2.532 0l2.55 2.549a2.308 2.308 0 0 0-.352 1.226 2.325 2.325 0 0 0 2.322 2.322 2.325 2.325 0 0 0 2.322-2.322c0-.467-.14-.902-.377-1.266l2.509-2.509c.364.238.8.377 1.266.377a2.325 2.325 0 0 0 2.322-2.322A2.325 2.325 0 0 0 20.548 1zM3.322 10.404A1.364 1.364 0 0 1 1.96 9.042c0-.751.61-1.362 1.362-1.362.751 0 1.362.611 1.362 1.362 0 .751-.61 1.362-1.362 1.362zm5.72-5.72A1.364 1.364 0 0 1 7.68 3.322c0-.751.611-1.362 1.362-1.362.751 0 1.362.61 1.362 1.362 0 .751-.61 1.362-1.362 1.362zm5.786 5.72a1.364 1.364 0 0 1-1.363-1.362 1.364 1.364 0 0 1 2.725 0c0 .751-.611 1.362-1.362 1.362zm5.72-5.72a1.364 1.364 0 0 1-1.362-1.362c0-.751.61-1.362 1.362-1.362.751 0 1.362.61 1.362 1.362 0 .751-.611 1.362-1.362 1.362z"/>
</svg>
